# xmcd
# 
# Track frame offsets:
#     150
#     20420
#     38081
#     56088
#     69564
#     90084
#     107258
#     127443
#     141595
#     158418
#     169881
#     184035
#     198675
#     212409
#     227656
#     241023
#     254539
#     269696
#     288058
#     304790
# 
# Disc length: 4288
# 
# Revision: 1
# Processed by: cddbd v1.5.2PL0 Copyright (c) Steve Scherf et al.
# Submitted via: fre:ac v1.0.27
# 
DISCID=1a10be14
DTITLE=Various Artist - De Pré Historie - De Jaren '70 - De Ultieme 10 CD Collectie - 1975
DYEAR=2018
DGENRE=Top 40
TTITLE0=Barry White - You're The First, The Last, My Everything
TTITLE1=Labelle - Voulez Vous Coucher Avec Moi Ce Soir? (Lady Marmalade)
TTITLE2=Van McCoy and The Soul City Symphony - The Hustle
TTITLE3=Gloria Gaynor - Never Can Say Goodbye
TTITLE4=Pussycat - Mississippi
TTITLE5=Status Quo - Down Down
TTITLE6=Esther Phillips - What A Diff'rence A Day Makes
TTITLE7=Two Man Sound - Charlie Brown
TTITLE8=Minnie Riperton - Lovin' You
TTITLE9=Desmond Dekker and The Aces - Israelites
TTITLE10=Glen Campbell - Rhinestone Cowboy
TTITLE11=Abba - I Do, I Do, I Do, I Do, I Do
TTITLE12=Ann Christy - Gelukkig zijn
TTITLE13=The Tymes - Ms. Grace
TTITLE14=Will Tura - Je Zien Huilen Kan Ik Niet
TTITLE15=Sailor - Sailor
TTITLE16=Barry Manilow - Mandy
TTITLE17=Lucifer - House For Sale
TTITLE18=Barclay James Harvest - Titles
TTITLE19=10CC - I'm Not In Love
EXTD=
EXTT0=
EXTT1=
EXTT2=
EXTT3=
EXTT4=
EXTT5=
EXTT6=
EXTT7=
EXTT8=
EXTT9=
EXTT10=
EXTT11=
EXTT12=
EXTT13=
EXTT14=
EXTT15=
EXTT16=
EXTT17=
EXTT18=
EXTT19=
PLAYORDER=
